<?xml version="1.0" encoding="utf-8" standalone="no"?>
<!DOCTYPE svg PUBLIC "-//W3C//DTD SVG 1.1//EN"
  "http://www.w3.org/Graphics/SVG/1.1/DTD/svg11.dtd">
<svg xmlns:xlink="http://www.w3.org/1999/xlink" width="518.057285pt" height="320.17701pt" viewBox="0 0 518.057285 320.17701" xmlns="http://www.w3.org/2000/svg" version="1.1">
 <metadata>
  <rdf:RDF xmlns:dc="http://purl.org/dc/elements/1.1/" xmlns:cc="http://creativecommons.org/ns#" xmlns:rdf="http://www.w3.org/1999/02/22-rdf-syntax-ns#">
   <cc:Work>
    <dc:type rdf:resource="http://purl.org/dc/dcmitype/StillImage"/>
    <dc:date>2022-06-07T16:25:22.031370</dc:date>
    <dc:format>image/svg+xml</dc:format>
    <dc:creator>
     <cc:Agent>
      <dc:title>Matplotlib v3.5.0, https://matplotlib.org/</dc:title>
     </cc:Agent>
    </dc:creator>
   </cc:Work>
  </rdf:RDF>
 </metadata>
 <defs>
  <style type="text/css">*{stroke-linejoin: round; stroke-linecap: butt}</style>
 </defs>
 <g id="figure_1">
  <g id="patch_1">
   <path d="M 0 320.17701 
L 518.057285 320.17701 
L 518.057285 0 
L 0 0 
z
" style="fill: #ffffff"/>
  </g>
  <g id="axes_1">
   <g id="patch_2">
    <path d="M 58.006875 264.710135 
L 254.111143 264.710135 
L 254.111143 29.96 
L 58.006875 29.96 
z
" style="fill: #ffffff"/>
   </g>
   <g id="matplotlib.axis_1">
    <g id="xtick_1">
     <g id="line2d_1">
      <defs>
       <path id="m5f04f13a2c" d="M 0 0 
L 0 6 
" style="stroke: #262626; stroke-width: 0.8"/>
      </defs>
      <g>
       <use xlink:href="#m5f04f13a2c" x="66.920705" y="264.710135" style="fill: #262626; stroke: #262626; stroke-width: 0.8"/>
      </g>
     </g>
     <g id="text_1">
      <!-- 500 -->
      <g style="fill: #262626" transform="translate(57.745158 282.083729)scale(0.11 -0.11)">
       <defs>
        <path id="ArialMT-35" d="M 266 1200 
L 856 1250 
Q 922 819 1161 601 
Q 1400 384 1738 384 
Q 2144 384 2425 690 
Q 2706 997 2706 1503 
Q 2706 1984 2436 2262 
Q 2166 2541 1728 2541 
Q 1456 2541 1237 2417 
Q 1019 2294 894 2097 
L 366 2166 
L 809 4519 
L 3088 4519 
L 3088 3981 
L 1259 3981 
L 1013 2750 
Q 1425 3038 1878 3038 
Q 2478 3038 2890 2622 
Q 3303 2206 3303 1553 
Q 3303 931 2941 478 
Q 2500 -78 1738 -78 
Q 1113 -78 717 272 
Q 322 622 266 1200 
z
" transform="scale(0.015625)"/>
        <path id="ArialMT-30" d="M 266 2259 
Q 266 3072 433 3567 
Q 600 4063 929 4331 
Q 1259 4600 1759 4600 
Q 2128 4600 2406 4451 
Q 2684 4303 2865 4023 
Q 3047 3744 3150 3342 
Q 3253 2941 3253 2259 
Q 3253 1453 3087 958 
Q 2922 463 2592 192 
Q 2263 -78 1759 -78 
Q 1097 -78 719 397 
Q 266 969 266 2259 
z
M 844 2259 
Q 844 1131 1108 757 
Q 1372 384 1759 384 
Q 2147 384 2411 759 
Q 2675 1134 2675 2259 
Q 2675 3391 2411 3762 
Q 2147 4134 1753 4134 
Q 1366 4134 1134 3806 
Q 844 3388 844 2259 
z
" transform="scale(0.015625)"/>
       </defs>
       <use xlink:href="#ArialMT-35"/>
       <use xlink:href="#ArialMT-30" x="55.615234"/>
       <use xlink:href="#ArialMT-30" x="111.230469"/>
      </g>
     </g>
    </g>
    <g id="xtick_2">
     <g id="line2d_2">
      <g>
       <use xlink:href="#m5f04f13a2c" x="100.181266" y="264.710135" style="fill: #262626; stroke: #262626; stroke-width: 0.8"/>
      </g>
     </g>
     <g id="text_2">
      <!-- 750 -->
      <g style="fill: #262626" transform="translate(91.005719 282.083729)scale(0.11 -0.11)">
       <defs>
        <path id="ArialMT-37" d="M 303 3981 
L 303 4522 
L 3269 4522 
L 3269 4084 
Q 2831 3619 2401 2847 
Q 1972 2075 1738 1259 
Q 1569 684 1522 0 
L 944 0 
Q 953 541 1156 1306 
Q 1359 2072 1739 2783 
Q 2119 3494 2547 3981 
L 303 3981 
z
" transform="scale(0.015625)"/>
       </defs>
       <use xlink:href="#ArialMT-37"/>
       <use xlink:href="#ArialMT-35" x="55.615234"/>
       <use xlink:href="#ArialMT-30" x="111.230469"/>
      </g>
     </g>
    </g>
    <g id="xtick_3">
     <g id="line2d_3">
      <g>
       <use xlink:href="#m5f04f13a2c" x="133.441827" y="264.710135" style="fill: #262626; stroke: #262626; stroke-width: 0.8"/>
      </g>
     </g>
     <g id="text_3">
      <!-- 1000 -->
      <g style="fill: #262626" transform="translate(121.207765 282.083729)scale(0.11 -0.11)">
       <defs>
        <path id="ArialMT-31" d="M 2384 0 
L 1822 0 
L 1822 3584 
Q 1619 3391 1289 3197 
Q 959 3003 697 2906 
L 697 3450 
Q 1169 3672 1522 3987 
Q 1875 4303 2022 4600 
L 2384 4600 
L 2384 0 
z
" transform="scale(0.015625)"/>
       </defs>
       <use xlink:href="#ArialMT-31"/>
       <use xlink:href="#ArialMT-30" x="55.615234"/>
       <use xlink:href="#ArialMT-30" x="111.230469"/>
       <use xlink:href="#ArialMT-30" x="166.845703"/>
      </g>
     </g>
    </g>
    <g id="xtick_4">
     <g id="line2d_4">
      <g>
       <use xlink:href="#m5f04f13a2c" x="166.702388" y="264.710135" style="fill: #262626; stroke: #262626; stroke-width: 0.8"/>
      </g>
     </g>
     <g id="text_4">
      <!-- 1250 -->
      <g style="fill: #262626" transform="translate(154.468326 282.083729)scale(0.11 -0.11)">
       <defs>
        <path id="ArialMT-32" d="M 3222 541 
L 3222 0 
L 194 0 
Q 188 203 259 391 
Q 375 700 629 1000 
Q 884 1300 1366 1694 
Q 2113 2306 2375 2664 
Q 2638 3022 2638 3341 
Q 2638 3675 2398 3904 
Q 2159 4134 1775 4134 
Q 1369 4134 1125 3890 
Q 881 3647 878 3216 
L 300 3275 
Q 359 3922 746 4261 
Q 1134 4600 1788 4600 
Q 2447 4600 2831 4234 
Q 3216 3869 3216 3328 
Q 3216 3053 3103 2787 
Q 2991 2522 2730 2228 
Q 2469 1934 1863 1422 
Q 1356 997 1212 845 
Q 1069 694 975 541 
L 3222 541 
z
" transform="scale(0.015625)"/>
       </defs>
       <use xlink:href="#ArialMT-31"/>
       <use xlink:href="#ArialMT-32" x="55.615234"/>
       <use xlink:href="#ArialMT-35" x="111.230469"/>
       <use xlink:href="#ArialMT-30" x="166.845703"/>
      </g>
     </g>
    </g>
    <g id="xtick_5">
     <g id="line2d_5">
      <g>
       <use xlink:href="#m5f04f13a2c" x="199.962949" y="264.710135" style="fill: #262626; stroke: #262626; stroke-width: 0.8"/>
      </g>
     </g>
     <g id="text_5">
      <!-- 1500 -->
      <g style="fill: #262626" transform="translate(187.728887 282.083729)scale(0.11 -0.11)">
       <use xlink:href="#ArialMT-31"/>
       <use xlink:href="#ArialMT-35" x="55.615234"/>
       <use xlink:href="#ArialMT-30" x="111.230469"/>
       <use xlink:href="#ArialMT-30" x="166.845703"/>
      </g>
     </g>
    </g>
    <g id="xtick_6">
     <g id="line2d_6">
      <g>
       <use xlink:href="#m5f04f13a2c" x="233.22351" y="264.710135" style="fill: #262626; stroke: #262626; stroke-width: 0.8"/>
      </g>
     </g>
     <g id="text_6">
      <!-- 1750 -->
      <g style="fill: #262626" transform="translate(220.989448 282.083729)scale(0.11 -0.11)">
       <use xlink:href="#ArialMT-31"/>
       <use xlink:href="#ArialMT-37" x="55.615234"/>
       <use xlink:href="#ArialMT-35" x="111.230469"/>
       <use xlink:href="#ArialMT-30" x="166.845703"/>
      </g>
     </g>
    </g>
   </g>
   <g id="matplotlib.axis_2">
    <g id="ytick_1">
     <g id="line2d_7">
      <defs>
       <path id="m644d098c17" d="M 0 0 
L -6 0 
" style="stroke: #262626; stroke-width: 0.8"/>
      </defs>
      <g>
       <use xlink:href="#m644d098c17" x="58.006875" y="239.812394" style="fill: #262626; stroke: #262626; stroke-width: 0.8"/>
      </g>
     </g>
     <g id="text_7">
      <!-- 37.2 -->
      <g style="fill: #262626" transform="translate(27.099844 243.749191)scale(0.11 -0.11)">
       <defs>
        <path id="ArialMT-33" d="M 269 1209 
L 831 1284 
Q 928 806 1161 595 
Q 1394 384 1728 384 
Q 2125 384 2398 659 
Q 2672 934 2672 1341 
Q 2672 1728 2419 1979 
Q 2166 2231 1775 2231 
Q 1616 2231 1378 2169 
L 1441 2663 
Q 1497 2656 1531 2656 
Q 1891 2656 2178 2843 
Q 2466 3031 2466 3422 
Q 2466 3731 2256 3934 
Q 2047 4138 1716 4138 
Q 1388 4138 1169 3931 
Q 950 3725 888 3313 
L 325 3413 
Q 428 3978 793 4289 
Q 1159 4600 1703 4600 
Q 2078 4600 2393 4439 
Q 2709 4278 2876 4000 
Q 3044 3722 3044 3409 
Q 3044 3113 2884 2869 
Q 2725 2625 2413 2481 
Q 2819 2388 3044 2092 
Q 3269 1797 3269 1353 
Q 3269 753 2831 336 
Q 2394 -81 1725 -81 
Q 1122 -81 723 278 
Q 325 638 269 1209 
z
" transform="scale(0.015625)"/>
        <path id="ArialMT-2e" d="M 581 0 
L 581 641 
L 1222 641 
L 1222 0 
L 581 0 
z
" transform="scale(0.015625)"/>
       </defs>
       <use xlink:href="#ArialMT-33"/>
       <use xlink:href="#ArialMT-37" x="55.615234"/>
       <use xlink:href="#ArialMT-2e" x="111.230469"/>
       <use xlink:href="#ArialMT-32" x="139.013672"/>
      </g>
     </g>
    </g>
    <g id="ytick_2">
     <g id="line2d_8">
      <g>
       <use xlink:href="#m644d098c17" x="58.006875" y="211.357832" style="fill: #262626; stroke: #262626; stroke-width: 0.8"/>
      </g>
     </g>
     <g id="text_8">
      <!-- 37.4 -->
      <g style="fill: #262626" transform="translate(27.099844 215.294629)scale(0.11 -0.11)">
       <defs>
        <path id="ArialMT-34" d="M 2069 0 
L 2069 1097 
L 81 1097 
L 81 1613 
L 2172 4581 
L 2631 4581 
L 2631 1613 
L 3250 1613 
L 3250 1097 
L 2631 1097 
L 2631 0 
L 2069 0 
z
M 2069 1613 
L 2069 3678 
L 634 1613 
L 2069 1613 
z
" transform="scale(0.015625)"/>
       </defs>
       <use xlink:href="#ArialMT-33"/>
       <use xlink:href="#ArialMT-37" x="55.615234"/>
       <use xlink:href="#ArialMT-2e" x="111.230469"/>
       <use xlink:href="#ArialMT-34" x="139.013672"/>
      </g>
     </g>
    </g>
    <g id="ytick_3">
     <g id="line2d_9">
      <g>
       <use xlink:href="#m644d098c17" x="58.006875" y="182.90327" style="fill: #262626; stroke: #262626; stroke-width: 0.8"/>
      </g>
     </g>
     <g id="text_9">
      <!-- 37.6 -->
      <g style="fill: #262626" transform="translate(27.099844 186.840067)scale(0.11 -0.11)">
       <defs>
        <path id="ArialMT-36" d="M 3184 3459 
L 2625 3416 
Q 2550 3747 2413 3897 
Q 2184 4138 1850 4138 
Q 1581 4138 1378 3988 
Q 1113 3794 959 3422 
Q 806 3050 800 2363 
Q 1003 2672 1297 2822 
Q 1591 2972 1913 2972 
Q 2475 2972 2870 2558 
Q 3266 2144 3266 1488 
Q 3266 1056 3080 686 
Q 2894 316 2569 119 
Q 2244 -78 1831 -78 
Q 1128 -78 684 439 
Q 241 956 241 2144 
Q 241 3472 731 4075 
Q 1159 4600 1884 4600 
Q 2425 4600 2770 4297 
Q 3116 3994 3184 3459 
z
M 888 1484 
Q 888 1194 1011 928 
Q 1134 663 1356 523 
Q 1578 384 1822 384 
Q 2178 384 2434 671 
Q 2691 959 2691 1453 
Q 2691 1928 2437 2201 
Q 2184 2475 1800 2475 
Q 1419 2475 1153 2201 
Q 888 1928 888 1484 
z
" transform="scale(0.015625)"/>
       </defs>
       <use xlink:href="#ArialMT-33"/>
       <use xlink:href="#ArialMT-37" x="55.615234"/>
       <use xlink:href="#ArialMT-2e" x="111.230469"/>
       <use xlink:href="#ArialMT-36" x="139.013672"/>
      </g>
     </g>
    </g>
    <g id="ytick_4">
     <g id="line2d_10">
      <g>
       <use xlink:href="#m644d098c17" x="58.006875" y="154.448708" style="fill: #262626; stroke: #262626; stroke-width: 0.8"/>
      </g>
     </g>
     <g id="text_10">
      <!-- 37.8 -->
      <g style="fill: #262626" transform="translate(27.099844 158.385505)scale(0.11 -0.11)">
       <defs>
        <path id="ArialMT-38" d="M 1131 2484 
Q 781 2613 612 2850 
Q 444 3088 444 3419 
Q 444 3919 803 4259 
Q 1163 4600 1759 4600 
Q 2359 4600 2725 4251 
Q 3091 3903 3091 3403 
Q 3091 3084 2923 2848 
Q 2756 2613 2416 2484 
Q 2838 2347 3058 2040 
Q 3278 1734 3278 1309 
Q 3278 722 2862 322 
Q 2447 -78 1769 -78 
Q 1091 -78 675 323 
Q 259 725 259 1325 
Q 259 1772 486 2073 
Q 713 2375 1131 2484 
z
M 1019 3438 
Q 1019 3113 1228 2906 
Q 1438 2700 1772 2700 
Q 2097 2700 2305 2904 
Q 2513 3109 2513 3406 
Q 2513 3716 2298 3927 
Q 2084 4138 1766 4138 
Q 1444 4138 1231 3931 
Q 1019 3725 1019 3438 
z
M 838 1322 
Q 838 1081 952 856 
Q 1066 631 1291 507 
Q 1516 384 1775 384 
Q 2178 384 2440 643 
Q 2703 903 2703 1303 
Q 2703 1709 2433 1975 
Q 2163 2241 1756 2241 
Q 1359 2241 1098 1978 
Q 838 1716 838 1322 
z
" transform="scale(0.015625)"/>
       </defs>
       <use xlink:href="#ArialMT-33"/>
       <use xlink:href="#ArialMT-37" x="55.615234"/>
       <use xlink:href="#ArialMT-2e" x="111.230469"/>
       <use xlink:href="#ArialMT-38" x="139.013672"/>
      </g>
     </g>
    </g>
    <g id="ytick_5">
     <g id="line2d_11">
      <g>
       <use xlink:href="#m644d098c17" x="58.006875" y="125.994146" style="fill: #262626; stroke: #262626; stroke-width: 0.8"/>
      </g>
     </g>
     <g id="text_11">
      <!-- 38.0 -->
      <g style="fill: #262626" transform="translate(27.099844 129.930943)scale(0.11 -0.11)">
       <use xlink:href="#ArialMT-33"/>
       <use xlink:href="#ArialMT-38" x="55.615234"/>
       <use xlink:href="#ArialMT-2e" x="111.230469"/>
       <use xlink:href="#ArialMT-30" x="139.013672"/>
      </g>
     </g>
    </g>
    <g id="ytick_6">
     <g id="line2d_12">
      <g>
       <use xlink:href="#m644d098c17" x="58.006875" y="97.539584" style="fill: #262626; stroke: #262626; stroke-width: 0.8"/>
      </g>
     </g>
     <g id="text_12">
      <!-- 38.2 -->
      <g style="fill: #262626" transform="translate(27.099844 101.476381)scale(0.11 -0.11)">
       <use xlink:href="#ArialMT-33"/>
       <use xlink:href="#ArialMT-38" x="55.615234"/>
       <use xlink:href="#ArialMT-2e" x="111.230469"/>
       <use xlink:href="#ArialMT-32" x="139.013672"/>
      </g>
     </g>
    </g>
    <g id="ytick_7">
     <g id="line2d_13">
      <g>
       <use xlink:href="#m644d098c17" x="58.006875" y="69.085023" style="fill: #262626; stroke: #262626; stroke-width: 0.8"/>
      </g>
     </g>
     <g id="text_13">
      <!-- 38.4 -->
      <g style="fill: #262626" transform="translate(27.099844 73.021819)scale(0.11 -0.11)">
       <use xlink:href="#ArialMT-33"/>
       <use xlink:href="#ArialMT-38" x="55.615234"/>
       <use xlink:href="#ArialMT-2e" x="111.230469"/>
       <use xlink:href="#ArialMT-34" x="139.013672"/>
      </g>
     </g>
    </g>
    <g id="ytick_8">
     <g id="line2d_14">
      <g>
       <use xlink:href="#m644d098c17" x="58.006875" y="40.630461" style="fill: #262626; stroke: #262626; stroke-width: 0.8"/>
      </g>
     </g>
     <g id="text_14">
      <!-- 38.6 -->
      <g style="fill: #262626" transform="translate(27.099844 44.567258)scale(0.11 -0.11)">
       <use xlink:href="#ArialMT-33"/>
       <use xlink:href="#ArialMT-38" x="55.615234"/>
       <use xlink:href="#ArialMT-2e" x="111.230469"/>
       <use xlink:href="#ArialMT-36" x="139.013672"/>
      </g>
     </g>
    </g>
    <g id="text_15">
     <!-- Temperature [C°] -->
     <g style="fill: #262626" transform="translate(20.714844 192.744755)rotate(-90)scale(0.12 -0.12)">
      <defs>
       <path id="ArialMT-54" d="M 1659 0 
L 1659 4041 
L 150 4041 
L 150 4581 
L 3781 4581 
L 3781 4041 
L 2266 4041 
L 2266 0 
L 1659 0 
z
" transform="scale(0.015625)"/>
       <path id="ArialMT-65" d="M 2694 1069 
L 3275 997 
Q 3138 488 2766 206 
Q 2394 -75 1816 -75 
Q 1088 -75 661 373 
Q 234 822 234 1631 
Q 234 2469 665 2931 
Q 1097 3394 1784 3394 
Q 2450 3394 2872 2941 
Q 3294 2488 3294 1666 
Q 3294 1616 3291 1516 
L 816 1516 
Q 847 969 1125 678 
Q 1403 388 1819 388 
Q 2128 388 2347 550 
Q 2566 713 2694 1069 
z
M 847 1978 
L 2700 1978 
Q 2663 2397 2488 2606 
Q 2219 2931 1791 2931 
Q 1403 2931 1139 2672 
Q 875 2413 847 1978 
z
" transform="scale(0.015625)"/>
       <path id="ArialMT-6d" d="M 422 0 
L 422 3319 
L 925 3319 
L 925 2853 
Q 1081 3097 1340 3245 
Q 1600 3394 1931 3394 
Q 2300 3394 2536 3241 
Q 2772 3088 2869 2813 
Q 3263 3394 3894 3394 
Q 4388 3394 4653 3120 
Q 4919 2847 4919 2278 
L 4919 0 
L 4359 0 
L 4359 2091 
Q 4359 2428 4304 2576 
Q 4250 2725 4106 2815 
Q 3963 2906 3769 2906 
Q 3419 2906 3187 2673 
Q 2956 2441 2956 1928 
L 2956 0 
L 2394 0 
L 2394 2156 
Q 2394 2531 2256 2718 
Q 2119 2906 1806 2906 
Q 1569 2906 1367 2781 
Q 1166 2656 1075 2415 
Q 984 2175 984 1722 
L 984 0 
L 422 0 
z
" transform="scale(0.015625)"/>
       <path id="ArialMT-70" d="M 422 -1272 
L 422 3319 
L 934 3319 
L 934 2888 
Q 1116 3141 1344 3267 
Q 1572 3394 1897 3394 
Q 2322 3394 2647 3175 
Q 2972 2956 3137 2557 
Q 3303 2159 3303 1684 
Q 3303 1175 3120 767 
Q 2938 359 2589 142 
Q 2241 -75 1856 -75 
Q 1575 -75 1351 44 
Q 1128 163 984 344 
L 984 -1272 
L 422 -1272 
z
M 931 1641 
Q 931 1000 1190 694 
Q 1450 388 1819 388 
Q 2194 388 2461 705 
Q 2728 1022 2728 1688 
Q 2728 2322 2467 2637 
Q 2206 2953 1844 2953 
Q 1484 2953 1207 2617 
Q 931 2281 931 1641 
z
" transform="scale(0.015625)"/>
       <path id="ArialMT-72" d="M 416 0 
L 416 3319 
L 922 3319 
L 922 2816 
Q 1116 3169 1280 3281 
Q 1444 3394 1641 3394 
Q 1925 3394 2219 3213 
L 2025 2691 
Q 1819 2813 1613 2813 
Q 1428 2813 1281 2702 
Q 1134 2591 1072 2394 
Q 978 2094 978 1738 
L 978 0 
L 416 0 
z
" transform="scale(0.015625)"/>
       <path id="ArialMT-61" d="M 2588 409 
Q 2275 144 1986 34 
Q 1697 -75 1366 -75 
Q 819 -75 525 192 
Q 231 459 231 875 
Q 231 1119 342 1320 
Q 453 1522 633 1644 
Q 813 1766 1038 1828 
Q 1203 1872 1538 1913 
Q 2219 1994 2541 2106 
Q 2544 2222 2544 2253 
Q 2544 2597 2384 2738 
Q 2169 2928 1744 2928 
Q 1347 2928 1158 2789 
Q 969 2650 878 2297 
L 328 2372 
Q 403 2725 575 2942 
Q 747 3159 1072 3276 
Q 1397 3394 1825 3394 
Q 2250 3394 2515 3294 
Q 2781 3194 2906 3042 
Q 3031 2891 3081 2659 
Q 3109 2516 3109 2141 
L 3109 1391 
Q 3109 606 3145 398 
Q 3181 191 3288 0 
L 2700 0 
Q 2613 175 2588 409 
z
M 2541 1666 
Q 2234 1541 1622 1453 
Q 1275 1403 1131 1340 
Q 988 1278 909 1158 
Q 831 1038 831 891 
Q 831 666 1001 516 
Q 1172 366 1500 366 
Q 1825 366 2078 508 
Q 2331 650 2450 897 
Q 2541 1088 2541 1459 
L 2541 1666 
z
" transform="scale(0.015625)"/>
       <path id="ArialMT-74" d="M 1650 503 
L 1731 6 
Q 1494 -44 1306 -44 
Q 1000 -44 831 53 
Q 663 150 594 308 
Q 525 466 525 972 
L 525 2881 
L 113 2881 
L 113 3319 
L 525 3319 
L 525 4141 
L 1084 4478 
L 1084 3319 
L 1650 3319 
L 1650 2881 
L 1084 2881 
L 1084 941 
Q 1084 700 1114 631 
Q 1144 563 1211 522 
Q 1278 481 1403 481 
Q 1497 481 1650 503 
z
" transform="scale(0.015625)"/>
       <path id="ArialMT-75" d="M 2597 0 
L 2597 488 
Q 2209 -75 1544 -75 
Q 1250 -75 995 37 
Q 741 150 617 320 
Q 494 491 444 738 
Q 409 903 409 1263 
L 409 3319 
L 972 3319 
L 972 1478 
Q 972 1038 1006 884 
Q 1059 663 1231 536 
Q 1403 409 1656 409 
Q 1909 409 2131 539 
Q 2353 669 2445 892 
Q 2538 1116 2538 1541 
L 2538 3319 
L 3100 3319 
L 3100 0 
L 2597 0 
z
" transform="scale(0.015625)"/>
       <path id="ArialMT-20" transform="scale(0.015625)"/>
       <path id="ArialMT-5b" d="M 434 -1272 
L 434 4581 
L 1675 4581 
L 1675 4116 
L 997 4116 
L 997 -806 
L 1675 -806 
L 1675 -1272 
L 434 -1272 
z
" transform="scale(0.015625)"/>
       <path id="ArialMT-43" d="M 3763 1606 
L 4369 1453 
Q 4178 706 3683 314 
Q 3188 -78 2472 -78 
Q 1731 -78 1267 223 
Q 803 525 561 1097 
Q 319 1669 319 2325 
Q 319 3041 592 3573 
Q 866 4106 1370 4382 
Q 1875 4659 2481 4659 
Q 3169 4659 3637 4309 
Q 4106 3959 4291 3325 
L 3694 3184 
Q 3534 3684 3231 3912 
Q 2928 4141 2469 4141 
Q 1941 4141 1586 3887 
Q 1231 3634 1087 3207 
Q 944 2781 944 2328 
Q 944 1744 1114 1308 
Q 1284 872 1643 656 
Q 2003 441 2422 441 
Q 2931 441 3284 734 
Q 3638 1028 3763 1606 
z
" transform="scale(0.015625)"/>
       <path id="ArialMT-b0" d="M 400 3794 
Q 400 4153 654 4406 
Q 909 4659 1266 4659 
Q 1628 4659 1881 4406 
Q 2134 4153 2134 3794 
Q 2134 3434 1879 3179 
Q 1625 2925 1266 2925 
Q 909 2925 654 3178 
Q 400 3431 400 3794 
z
M 741 3794 
Q 741 3575 895 3420 
Q 1050 3266 1269 3266 
Q 1484 3266 1639 3420 
Q 1794 3575 1794 3794 
Q 1794 4013 1639 4167 
Q 1484 4322 1269 4322 
Q 1050 4322 895 4167 
Q 741 4013 741 3794 
z
" transform="scale(0.015625)"/>
       <path id="ArialMT-5d" d="M 1363 -1272 
L 122 -1272 
L 122 -806 
L 800 -806 
L 800 4116 
L 122 4116 
L 122 4581 
L 1363 4581 
L 1363 -1272 
z
" transform="scale(0.015625)"/>
      </defs>
      <use xlink:href="#ArialMT-54"/>
      <use xlink:href="#ArialMT-65" x="49.958984"/>
      <use xlink:href="#ArialMT-6d" x="105.574219"/>
      <use xlink:href="#ArialMT-70" x="188.875"/>
      <use xlink:href="#ArialMT-65" x="244.490234"/>
      <use xlink:href="#ArialMT-72" x="300.105469"/>
      <use xlink:href="#ArialMT-61" x="333.40625"/>
      <use xlink:href="#ArialMT-74" x="389.021484"/>
      <use xlink:href="#ArialMT-75" x="416.804688"/>
      <use xlink:href="#ArialMT-72" x="472.419922"/>
      <use xlink:href="#ArialMT-65" x="505.720703"/>
      <use xlink:href="#ArialMT-20" x="561.335938"/>
      <use xlink:href="#ArialMT-5b" x="589.119141"/>
      <use xlink:href="#ArialMT-43" x="616.902344"/>
      <use xlink:href="#ArialMT-b0" x="689.119141"/>
      <use xlink:href="#ArialMT-5d" x="729.109375"/>
     </g>
    </g>
   </g>
   <g id="PathCollection_1">
    <defs>
     <path id="m78d4b36d7e" d="M 0 3 
C 0.795609 3 1.55874 2.683901 2.12132 2.12132 
C 2.683901 1.55874 3 0.795609 3 0 
C 3 -0.795609 2.683901 -1.55874 2.12132 -2.12132 
C 1.55874 -2.683901 0.795609 -3 0 -3 
C -0.795609 -3 -1.55874 -2.683901 -2.12132 -2.12132 
C -2.683901 -1.55874 -3 -0.795609 -3 0 
C -3 0.795609 -2.683901 1.55874 -2.12132 2.12132 
C -1.55874 2.683901 -0.795609 3 0 3 
z
" style="stroke: #ff0000"/>
    </defs>
    <g clip-path="url(#p73bf27b5e7)">
     <use xlink:href="#m78d4b36d7e" x="217.258441" y="40.630461" style="fill: #ff0000; stroke: #ff0000"/>
    </g>
   </g>
   <g id="PathCollection_2">
    <defs>
     <path id="m421b9423d9" d="M 0 3 
C 0.795609 3 1.55874 2.683901 2.12132 2.12132 
C 2.683901 1.55874 3 0.795609 3 0 
C 3 -0.795609 2.683901 -1.55874 2.12132 -2.12132 
C 1.55874 -2.683901 0.795609 -3 0 -3 
C -0.795609 -3 -1.55874 -2.683901 -2.12132 -2.12132 
C -2.683901 -1.55874 -3 -0.795609 -3 0 
C -3 0.795609 -2.683901 1.55874 -2.12132 2.12132 
C -1.55874 2.683901 -0.795609 3 0 3 
z
" style="stroke: #234990"/>
    </defs>
    <g clip-path="url(#p73bf27b5e7)">
     <use xlink:href="#m421b9423d9" x="245.197312" y="97.539584" style="fill: #234990; stroke: #234990"/>
    </g>
   </g>
   <g id="PathCollection_3">
    <defs>
     <path id="mc5e9d9e6b5" d="M 0 3 
C 0.795609 3 1.55874 2.683901 2.12132 2.12132 
C 2.683901 1.55874 3 0.795609 3 0 
C 3 -0.795609 2.683901 -1.55874 2.12132 -2.12132 
C 1.55874 -2.683901 0.795609 -3 0 -3 
C -0.795609 -3 -1.55874 -2.683901 -2.12132 -2.12132 
C -2.683901 -1.55874 -3 -0.795609 -3 0 
C -3 0.795609 -2.683901 1.55874 -2.12132 2.12132 
C -1.55874 2.683901 -0.795609 3 0 3 
z
" style="stroke: #207720"/>
    </defs>
    <g clip-path="url(#p73bf27b5e7)">
     <use xlink:href="#mc5e9d9e6b5" x="239.875622" y="111.766865" style="fill: #207720; stroke: #207720"/>
    </g>
   </g>
   <g id="line2d_15">
    <path d="M 66.920705 154.448708 
L 68.251128 154.448708 
L 69.58155 154.448708 
L 70.911973 154.448708 
L 72.242395 154.448708 
L 73.572818 140.221427 
L 74.90324 140.221427 
L 76.233662 125.994146 
L 77.564085 125.994146 
L 78.894507 125.994146 
L 80.22493 140.221427 
L 81.555352 140.221427 
L 82.885775 140.221427 
L 84.216197 140.221427 
L 85.546619 140.221427 
L 86.877042 140.221427 
L 88.207464 125.994146 
L 89.537887 125.994146 
L 90.868309 111.766865 
L 92.198732 125.994146 
L 93.529154 125.994146 
L 94.859577 140.221427 
L 96.189999 140.221427 
L 97.520421 140.221427 
L 98.850844 140.221427 
L 100.181266 140.221427 
L 101.511689 125.994146 
L 102.842111 140.221427 
L 104.172534 140.221427 
L 105.502956 125.994146 
L 106.833379 140.221427 
L 108.163801 125.994146 
L 109.494223 125.994146 
L 110.824646 125.994146 
L 112.155068 125.994146 
L 113.485491 125.994146 
L 114.815913 125.994146 
L 116.146336 111.766865 
L 117.476758 125.994146 
L 118.80718 125.994146 
L 120.137603 125.994146 
L 121.468025 125.994146 
L 122.798448 125.994146 
L 124.12887 125.994146 
L 125.459293 125.994146 
L 126.789715 111.766865 
L 128.120138 111.766865 
L 129.45056 111.766865 
L 130.780982 111.766865 
L 132.111405 83.312303 
L 133.441827 111.766865 
L 134.77225 97.539584 
L 136.102672 97.539584 
L 137.433095 97.539584 
L 138.763517 97.539584 
L 140.09394 97.539584 
L 141.424362 97.539584 
L 142.754784 97.539584 
L 144.085207 97.539584 
L 145.415629 97.539584 
L 146.746052 83.312303 
L 148.076474 97.539584 
L 149.406897 97.539584 
L 150.737319 97.539584 
L 152.067741 97.539584 
L 153.398164 97.539584 
L 154.728586 97.539584 
L 156.059009 97.539584 
L 157.389431 97.539584 
L 158.719854 97.539584 
L 160.050276 83.312303 
L 161.380699 83.312303 
L 162.711121 97.539584 
L 164.041543 97.539584 
L 165.371966 97.539584 
L 166.702388 97.539584 
L 168.032811 97.539584 
L 169.363233 97.539584 
L 170.693656 97.539584 
L 172.024078 97.539584 
L 173.354501 83.312303 
L 174.684923 83.312303 
L 176.015345 83.312303 
L 177.345768 83.312303 
L 178.67619 83.312303 
L 180.006613 83.312303 
L 181.337035 54.857742 
L 182.667458 83.312303 
L 183.99788 83.312303 
L 185.328302 83.312303 
L 186.658725 83.312303 
L 187.989147 83.312303 
L 189.31957 69.085023 
L 190.649992 54.857742 
L 191.980415 69.085023 
L 193.310837 69.085023 
L 194.64126 69.085023 
L 195.971682 69.085023 
L 197.302104 69.085023 
L 198.632527 54.857742 
L 199.962949 69.085023 
L 201.293372 69.085023 
L 202.623794 69.085023 
L 203.954217 69.085023 
L 205.284639 54.857742 
L 206.615061 69.085023 
L 207.945484 54.857742 
L 209.275906 69.085023 
L 210.606329 69.085023 
L 211.936751 69.085023 
L 213.267174 69.085023 
L 214.597596 69.085023 
L 215.928019 69.085023 
L 217.258441 40.630461 
L 218.588863 69.085023 
L 219.919286 54.857742 
L 221.249708 54.857742 
L 222.580131 54.857742 
L 223.910553 54.857742 
L 225.240976 54.857742 
L 226.571398 54.857742 
L 227.901821 54.857742 
L 229.232243 54.857742 
L 230.562665 54.857742 
L 231.893088 54.857742 
L 233.22351 54.857742 
" clip-path="url(#p73bf27b5e7)" style="fill: none; stroke: #ff0000; stroke-opacity: 0.8; stroke-linecap: round"/>
   </g>
   <g id="line2d_16">
    <path d="M 66.920705 254.039675 
L 70.911973 254.039675 
L 72.242395 239.812394 
L 80.22493 239.812394 
L 81.555352 225.585113 
L 82.885775 239.812394 
L 92.198732 239.812394 
L 93.529154 225.585113 
L 96.189999 225.585113 
L 98.850844 197.130551 
L 100.181266 197.130551 
L 102.842111 225.585113 
L 104.172534 211.357832 
L 108.163801 211.357832 
L 109.494223 197.130551 
L 113.485491 197.130551 
L 114.815913 182.90327 
L 116.146336 197.130551 
L 117.476758 182.90327 
L 118.80718 182.90327 
L 120.137603 197.130551 
L 121.468025 182.90327 
L 122.798448 182.90327 
L 124.12887 197.130551 
L 133.441827 197.130551 
L 134.77225 182.90327 
L 136.102672 197.130551 
L 137.433095 182.90327 
L 138.763517 182.90327 
L 140.09394 197.130551 
L 141.424362 182.90327 
L 148.076474 182.90327 
L 149.406897 168.675989 
L 153.398164 168.675989 
L 154.728586 154.448708 
L 156.059009 182.90327 
L 157.389431 168.675989 
L 158.719854 182.90327 
L 160.050276 182.90327 
L 164.041543 140.221427 
L 165.371966 182.90327 
L 166.702388 168.675989 
L 168.032811 182.90327 
L 169.363233 168.675989 
L 178.67619 168.675989 
L 180.006613 154.448708 
L 181.337035 168.675989 
L 190.649992 168.675989 
L 193.310837 140.221427 
L 194.64126 154.448708 
L 197.302104 154.448708 
L 198.632527 140.221427 
L 209.275906 140.221427 
L 210.606329 125.994146 
L 211.936751 140.221427 
L 213.267174 125.994146 
L 215.928019 125.994146 
L 217.258441 140.221427 
L 218.588863 125.994146 
L 219.919286 140.221427 
L 222.580131 140.221427 
L 223.910553 154.448708 
L 225.240976 154.448708 
L 226.571398 140.221427 
L 235.884355 140.221427 
L 237.214778 125.994146 
L 238.5452 140.221427 
L 241.206045 140.221427 
L 242.536467 97.539584 
L 245.197312 97.539584 
L 245.197312 97.539584 
" clip-path="url(#p73bf27b5e7)" style="fill: none; stroke: #234990; stroke-opacity: 0.8; stroke-linecap: round"/>
   </g>
   <g id="line2d_17">
    <path d="M 66.920705 182.90327 
L 68.251128 182.90327 
L 69.58155 168.675989 
L 70.911973 168.675989 
L 72.242395 182.90327 
L 82.885775 182.90327 
L 85.546619 154.448708 
L 86.877042 168.675989 
L 96.189999 168.675989 
L 97.520421 140.221427 
L 98.850844 168.675989 
L 100.181266 154.448708 
L 101.511689 168.675989 
L 106.966421 168.675989 
L 108.296843 154.448708 
L 109.494223 154.448708 
L 110.824646 168.675989 
L 112.155068 154.448708 
L 113.485491 154.448708 
L 114.815913 168.675989 
L 117.476758 168.675989 
L 118.80718 154.448708 
L 120.137603 168.675989 
L 121.468025 168.675989 
L 122.798448 154.448708 
L 124.12887 168.675989 
L 125.459293 154.448708 
L 126.789715 154.448708 
L 128.120138 168.675989 
L 129.45056 168.675989 
L 130.780982 154.448708 
L 132.111405 154.448708 
L 133.441827 168.675989 
L 137.433095 168.675989 
L 138.763517 154.448708 
L 142.754784 154.448708 
L 144.085207 168.675989 
L 145.415629 140.221427 
L 146.746052 154.448708 
L 149.406897 154.448708 
L 150.737319 168.675989 
L 152.067741 154.448708 
L 156.059009 154.448708 
L 157.522473 140.221427 
L 158.719854 125.994146 
L 160.050276 154.448708 
L 172.024078 154.448708 
L 173.354501 140.221427 
L 174.684923 140.221427 
L 176.015345 154.448708 
L 180.006613 154.448708 
L 181.337035 140.221427 
L 182.667458 154.448708 
L 183.99788 140.221427 
L 185.328302 154.448708 
L 186.658725 140.221427 
L 187.989147 140.221427 
L 189.31957 154.448708 
L 190.649992 125.994146 
L 191.980415 125.994146 
L 193.310837 140.221427 
L 207.945484 140.221427 
L 209.275906 125.994146 
L 210.606329 125.994146 
L 211.936751 111.766865 
L 213.267174 111.766865 
L 214.597596 125.994146 
L 225.240976 125.994146 
L 226.571398 111.766865 
L 233.22351 111.766865 
L 234.553933 125.994146 
L 235.884355 125.994146 
L 237.214778 111.766865 
L 239.875622 111.766865 
L 239.875622 111.766865 
" clip-path="url(#p73bf27b5e7)" style="fill: none; stroke: #207720; stroke-opacity: 0.8; stroke-linecap: round"/>
   </g>
   <g id="patch_3">
    <path d="M 58.006875 264.710135 
L 58.006875 29.96 
" style="fill: none; stroke: #262626; stroke-width: 1.25; stroke-linejoin: miter; stroke-linecap: square"/>
   </g>
   <g id="patch_4">
    <path d="M 254.111143 264.710135 
L 254.111143 29.96 
" style="fill: none; stroke: #262626; stroke-width: 1.25; stroke-linejoin: miter; stroke-linecap: square"/>
   </g>
   <g id="patch_5">
    <path d="M 58.006875 264.710135 
L 254.111143 264.710135 
" style="fill: none; stroke: #262626; stroke-width: 1.25; stroke-linejoin: miter; stroke-linecap: square"/>
   </g>
   <g id="patch_6">
    <path d="M 58.006875 29.96 
L 254.111143 29.96 
" style="fill: none; stroke: #262626; stroke-width: 1.25; stroke-linejoin: miter; stroke-linecap: square"/>
   </g>
   <g id="text_16">
    <!-- Body Core Temperature -->
    <g style="fill: #262626" transform="translate(76.837603 23.96)scale(0.14 -0.14)">
     <defs>
      <path id="Arial-BoldMT-42" d="M 469 4581 
L 2300 4581 
Q 2844 4581 3111 4536 
Q 3378 4491 3589 4347 
Q 3800 4203 3940 3964 
Q 4081 3725 4081 3428 
Q 4081 3106 3907 2837 
Q 3734 2569 3438 2434 
Q 3856 2313 4081 2019 
Q 4306 1725 4306 1328 
Q 4306 1016 4161 720 
Q 4016 425 3764 248 
Q 3513 72 3144 31 
Q 2913 6 2028 0 
L 469 0 
L 469 4581 
z
M 1394 3819 
L 1394 2759 
L 2000 2759 
Q 2541 2759 2672 2775 
Q 2909 2803 3045 2939 
Q 3181 3075 3181 3297 
Q 3181 3509 3064 3642 
Q 2947 3775 2716 3803 
Q 2578 3819 1925 3819 
L 1394 3819 
z
M 1394 1997 
L 1394 772 
L 2250 772 
Q 2750 772 2884 800 
Q 3091 838 3220 983 
Q 3350 1128 3350 1372 
Q 3350 1578 3250 1722 
Q 3150 1866 2961 1931 
Q 2772 1997 2141 1997 
L 1394 1997 
z
" transform="scale(0.015625)"/>
      <path id="Arial-BoldMT-6f" d="M 256 1706 
Q 256 2144 472 2553 
Q 688 2963 1083 3178 
Q 1478 3394 1966 3394 
Q 2719 3394 3200 2905 
Q 3681 2416 3681 1669 
Q 3681 916 3195 420 
Q 2709 -75 1972 -75 
Q 1516 -75 1102 131 
Q 688 338 472 736 
Q 256 1134 256 1706 
z
M 1156 1659 
Q 1156 1166 1390 903 
Q 1625 641 1969 641 
Q 2313 641 2545 903 
Q 2778 1166 2778 1666 
Q 2778 2153 2545 2415 
Q 2313 2678 1969 2678 
Q 1625 2678 1390 2415 
Q 1156 2153 1156 1659 
z
" transform="scale(0.015625)"/>
      <path id="Arial-BoldMT-64" d="M 3503 0 
L 2688 0 
L 2688 488 
Q 2484 203 2207 64 
Q 1931 -75 1650 -75 
Q 1078 -75 670 386 
Q 263 847 263 1672 
Q 263 2516 659 2955 
Q 1056 3394 1663 3394 
Q 2219 3394 2625 2931 
L 2625 4581 
L 3503 4581 
L 3503 0 
z
M 1159 1731 
Q 1159 1200 1306 963 
Q 1519 619 1900 619 
Q 2203 619 2415 876 
Q 2628 1134 2628 1647 
Q 2628 2219 2422 2470 
Q 2216 2722 1894 2722 
Q 1581 2722 1370 2473 
Q 1159 2225 1159 1731 
z
" transform="scale(0.015625)"/>
      <path id="Arial-BoldMT-79" d="M 44 3319 
L 978 3319 
L 1772 963 
L 2547 3319 
L 3456 3319 
L 2284 125 
L 2075 -453 
Q 1959 -744 1854 -897 
Q 1750 -1050 1614 -1145 
Q 1478 -1241 1279 -1294 
Q 1081 -1347 831 -1347 
Q 578 -1347 334 -1294 
L 256 -606 
Q 463 -647 628 -647 
Q 934 -647 1081 -467 
Q 1228 -288 1306 -9 
L 44 3319 
z
" transform="scale(0.015625)"/>
      <path id="Arial-BoldMT-20" transform="scale(0.015625)"/>
      <path id="Arial-BoldMT-43" d="M 3397 1684 
L 4294 1400 
Q 4088 650 3608 286 
Q 3128 -78 2391 -78 
Q 1478 -78 890 545 
Q 303 1169 303 2250 
Q 303 3394 893 4026 
Q 1484 4659 2447 4659 
Q 3288 4659 3813 4163 
Q 4125 3869 4281 3319 
L 3366 3100 
Q 3284 3456 3026 3662 
Q 2769 3869 2400 3869 
Q 1891 3869 1573 3503 
Q 1256 3138 1256 2319 
Q 1256 1450 1568 1081 
Q 1881 713 2381 713 
Q 2750 713 3015 947 
Q 3281 1181 3397 1684 
z
" transform="scale(0.015625)"/>
      <path id="Arial-BoldMT-72" d="M 1300 0 
L 422 0 
L 422 3319 
L 1238 3319 
L 1238 2847 
Q 1447 3181 1614 3287 
Q 1781 3394 1994 3394 
Q 2294 3394 2572 3228 
L 2300 2463 
Q 2078 2606 1888 2606 
Q 1703 2606 1575 2504 
Q 1447 2403 1373 2137 
Q 1300 1872 1300 1025 
L 1300 0 
z
" transform="scale(0.015625)"/>
      <path id="Arial-BoldMT-65" d="M 2381 1056 
L 3256 909 
Q 3088 428 2723 176 
Q 2359 -75 1813 -75 
Q 947 -75 531 491 
Q 203 944 203 1634 
Q 203 2459 634 2926 
Q 1066 3394 1725 3394 
Q 2466 3394 2894 2905 
Q 3322 2416 3303 1406 
L 1103 1406 
Q 1113 1016 1316 798 
Q 1519 581 1822 581 
Q 2028 581 2168 693 
Q 2309 806 2381 1056 
z
M 2431 1944 
Q 2422 2325 2234 2523 
Q 2047 2722 1778 2722 
Q 1491 2722 1303 2513 
Q 1116 2303 1119 1944 
L 2431 1944 
z
" transform="scale(0.015625)"/>
      <path id="Arial-BoldMT-54" d="M 1497 0 
L 1497 3806 
L 138 3806 
L 138 4581 
L 3778 4581 
L 3778 3806 
L 2422 3806 
L 2422 0 
L 1497 0 
z
" transform="scale(0.015625)"/>
      <path id="Arial-BoldMT-6d" d="M 394 3319 
L 1203 3319 
L 1203 2866 
Q 1638 3394 2238 3394 
Q 2556 3394 2790 3262 
Q 3025 3131 3175 2866 
Q 3394 3131 3647 3262 
Q 3900 3394 4188 3394 
Q 4553 3394 4806 3245 
Q 5059 3097 5184 2809 
Q 5275 2597 5275 2122 
L 5275 0 
L 4397 0 
L 4397 1897 
Q 4397 2391 4306 2534 
Q 4184 2722 3931 2722 
Q 3747 2722 3584 2609 
Q 3422 2497 3350 2280 
Q 3278 2063 3278 1594 
L 3278 0 
L 2400 0 
L 2400 1819 
Q 2400 2303 2353 2443 
Q 2306 2584 2207 2653 
Q 2109 2722 1941 2722 
Q 1738 2722 1575 2612 
Q 1413 2503 1342 2297 
Q 1272 2091 1272 1613 
L 1272 0 
L 394 0 
L 394 3319 
z
" transform="scale(0.015625)"/>
      <path id="Arial-BoldMT-70" d="M 434 3319 
L 1253 3319 
L 1253 2831 
Q 1413 3081 1684 3237 
Q 1956 3394 2288 3394 
Q 2866 3394 3269 2941 
Q 3672 2488 3672 1678 
Q 3672 847 3265 386 
Q 2859 -75 2281 -75 
Q 2006 -75 1782 34 
Q 1559 144 1313 409 
L 1313 -1263 
L 434 -1263 
L 434 3319 
z
M 1303 1716 
Q 1303 1156 1525 889 
Q 1747 622 2066 622 
Q 2372 622 2575 867 
Q 2778 1113 2778 1672 
Q 2778 2194 2568 2447 
Q 2359 2700 2050 2700 
Q 1728 2700 1515 2451 
Q 1303 2203 1303 1716 
z
" transform="scale(0.015625)"/>
      <path id="Arial-BoldMT-61" d="M 1116 2306 
L 319 2450 
Q 453 2931 781 3162 
Q 1109 3394 1756 3394 
Q 2344 3394 2631 3255 
Q 2919 3116 3036 2902 
Q 3153 2688 3153 2116 
L 3144 1091 
Q 3144 653 3186 445 
Q 3228 238 3344 0 
L 2475 0 
Q 2441 88 2391 259 
Q 2369 338 2359 363 
Q 2134 144 1878 34 
Q 1622 -75 1331 -75 
Q 819 -75 523 203 
Q 228 481 228 906 
Q 228 1188 362 1408 
Q 497 1628 739 1745 
Q 981 1863 1438 1950 
Q 2053 2066 2291 2166 
L 2291 2253 
Q 2291 2506 2166 2614 
Q 2041 2722 1694 2722 
Q 1459 2722 1328 2630 
Q 1197 2538 1116 2306 
z
M 2291 1594 
Q 2122 1538 1756 1459 
Q 1391 1381 1278 1306 
Q 1106 1184 1106 997 
Q 1106 813 1243 678 
Q 1381 544 1594 544 
Q 1831 544 2047 700 
Q 2206 819 2256 991 
Q 2291 1103 2291 1419 
L 2291 1594 
z
" transform="scale(0.015625)"/>
      <path id="Arial-BoldMT-74" d="M 1981 3319 
L 1981 2619 
L 1381 2619 
L 1381 1281 
Q 1381 875 1398 808 
Q 1416 741 1477 697 
Q 1538 653 1625 653 
Q 1747 653 1978 738 
L 2053 56 
Q 1747 -75 1359 -75 
Q 1122 -75 931 4 
Q 741 84 652 211 
Q 563 338 528 553 
Q 500 706 500 1172 
L 500 2619 
L 97 2619 
L 97 3319 
L 500 3319 
L 500 3978 
L 1381 4491 
L 1381 3319 
L 1981 3319 
z
" transform="scale(0.015625)"/>
      <path id="Arial-BoldMT-75" d="M 2644 0 
L 2644 497 
Q 2463 231 2167 78 
Q 1872 -75 1544 -75 
Q 1209 -75 943 72 
Q 678 219 559 484 
Q 441 750 441 1219 
L 441 3319 
L 1319 3319 
L 1319 1794 
Q 1319 1094 1367 936 
Q 1416 778 1544 686 
Q 1672 594 1869 594 
Q 2094 594 2272 717 
Q 2450 841 2515 1023 
Q 2581 1206 2581 1919 
L 2581 3319 
L 3459 3319 
L 3459 0 
L 2644 0 
z
" transform="scale(0.015625)"/>
     </defs>
     <use xlink:href="#Arial-BoldMT-42"/>
     <use xlink:href="#Arial-BoldMT-6f" x="72.216797"/>
     <use xlink:href="#Arial-BoldMT-64" x="133.300781"/>
     <use xlink:href="#Arial-BoldMT-79" x="194.384766"/>
     <use xlink:href="#Arial-BoldMT-20" x="250"/>
     <use xlink:href="#Arial-BoldMT-43" x="277.783203"/>
     <use xlink:href="#Arial-BoldMT-6f" x="350"/>
     <use xlink:href="#Arial-BoldMT-72" x="411.083984"/>
     <use xlink:href="#Arial-BoldMT-65" x="450"/>
     <use xlink:href="#Arial-BoldMT-20" x="505.615234"/>
     <use xlink:href="#Arial-BoldMT-54" x="533.398438"/>
     <use xlink:href="#Arial-BoldMT-65" x="587.107422"/>
     <use xlink:href="#Arial-BoldMT-6d" x="642.722656"/>
     <use xlink:href="#Arial-BoldMT-70" x="731.638672"/>
     <use xlink:href="#Arial-BoldMT-65" x="792.722656"/>
     <use xlink:href="#Arial-BoldMT-72" x="848.337891"/>
     <use xlink:href="#Arial-BoldMT-61" x="887.253906"/>
     <use xlink:href="#Arial-BoldMT-74" x="942.869141"/>
     <use xlink:href="#Arial-BoldMT-75" x="976.169922"/>
     <use xlink:href="#Arial-BoldMT-72" x="1037.253906"/>
     <use xlink:href="#Arial-BoldMT-65" x="1076.169922"/>
    </g>
   </g>
  </g>
  <g id="axes_2">
   <g id="patch_7">
    <path d="M 294.946143 264.710135 
L 491.05041 264.710135 
L 491.05041 29.96 
L 294.946143 29.96 
z
" style="fill: #ffffff"/>
   </g>
   <g id="matplotlib.axis_3">
    <g id="xtick_7">
     <g id="line2d_18">
      <g>
       <use xlink:href="#m5f04f13a2c" x="303.859973" y="264.710135" style="fill: #262626; stroke: #262626; stroke-width: 0.8"/>
      </g>
     </g>
     <g id="text_17">
      <!-- 500 -->
      <g style="fill: #262626" transform="translate(294.684426 282.083729)scale(0.11 -0.11)">
       <use xlink:href="#ArialMT-35"/>
       <use xlink:href="#ArialMT-30" x="55.615234"/>
       <use xlink:href="#ArialMT-30" x="111.230469"/>
      </g>
     </g>
    </g>
    <g id="xtick_8">
     <g id="line2d_19">
      <g>
       <use xlink:href="#m5f04f13a2c" x="337.120534" y="264.710135" style="fill: #262626; stroke: #262626; stroke-width: 0.8"/>
      </g>
     </g>
     <g id="text_18">
      <!-- 750 -->
      <g style="fill: #262626" transform="translate(327.944987 282.083729)scale(0.11 -0.11)">
       <use xlink:href="#ArialMT-37"/>
       <use xlink:href="#ArialMT-35" x="55.615234"/>
       <use xlink:href="#ArialMT-30" x="111.230469"/>
      </g>
     </g>
    </g>
    <g id="xtick_9">
     <g id="line2d_20">
      <g>
       <use xlink:href="#m5f04f13a2c" x="370.381095" y="264.710135" style="fill: #262626; stroke: #262626; stroke-width: 0.8"/>
      </g>
     </g>
     <g id="text_19">
      <!-- 1000 -->
      <g style="fill: #262626" transform="translate(358.147032 282.083729)scale(0.11 -0.11)">
       <use xlink:href="#ArialMT-31"/>
       <use xlink:href="#ArialMT-30" x="55.615234"/>
       <use xlink:href="#ArialMT-30" x="111.230469"/>
       <use xlink:href="#ArialMT-30" x="166.845703"/>
      </g>
     </g>
    </g>
    <g id="xtick_10">
     <g id="line2d_21">
      <g>
       <use xlink:href="#m5f04f13a2c" x="403.641656" y="264.710135" style="fill: #262626; stroke: #262626; stroke-width: 0.8"/>
      </g>
     </g>
     <g id="text_20">
      <!-- 1250 -->
      <g style="fill: #262626" transform="translate(391.407593 282.083729)scale(0.11 -0.11)">
       <use xlink:href="#ArialMT-31"/>
       <use xlink:href="#ArialMT-32" x="55.615234"/>
       <use xlink:href="#ArialMT-35" x="111.230469"/>
       <use xlink:href="#ArialMT-30" x="166.845703"/>
      </g>
     </g>
    </g>
    <g id="xtick_11">
     <g id="line2d_22">
      <g>
       <use xlink:href="#m5f04f13a2c" x="436.902217" y="264.710135" style="fill: #262626; stroke: #262626; stroke-width: 0.8"/>
      </g>
     </g>
     <g id="text_21">
      <!-- 1500 -->
      <g style="fill: #262626" transform="translate(424.668154 282.083729)scale(0.11 -0.11)">
       <use xlink:href="#ArialMT-31"/>
       <use xlink:href="#ArialMT-35" x="55.615234"/>
       <use xlink:href="#ArialMT-30" x="111.230469"/>
       <use xlink:href="#ArialMT-30" x="166.845703"/>
      </g>
     </g>
    </g>
    <g id="xtick_12">
     <g id="line2d_23">
      <g>
       <use xlink:href="#m5f04f13a2c" x="470.162778" y="264.710135" style="fill: #262626; stroke: #262626; stroke-width: 0.8"/>
      </g>
     </g>
     <g id="text_22">
      <!-- 1750 -->
      <g style="fill: #262626" transform="translate(457.928715 282.083729)scale(0.11 -0.11)">
       <use xlink:href="#ArialMT-31"/>
       <use xlink:href="#ArialMT-37" x="55.615234"/>
       <use xlink:href="#ArialMT-35" x="111.230469"/>
       <use xlink:href="#ArialMT-30" x="166.845703"/>
      </g>
     </g>
    </g>
   </g>
   <g id="matplotlib.axis_4">
    <g id="ytick_9">
     <g id="line2d_24">
      <g>
       <use xlink:href="#m644d098c17" x="294.946143" y="263.740093" style="fill: #262626; stroke: #262626; stroke-width: 0.8"/>
      </g>
     </g>
     <g id="text_23">
      <!-- 155 -->
      <g style="fill: #262626" transform="translate(267.095049 267.67689)scale(0.11 -0.11)">
       <use xlink:href="#ArialMT-31"/>
       <use xlink:href="#ArialMT-35" x="55.615234"/>
       <use xlink:href="#ArialMT-35" x="111.230469"/>
      </g>
     </g>
    </g>
    <g id="ytick_10">
     <g id="line2d_25">
      <g>
       <use xlink:href="#m644d098c17" x="294.946143" y="215.237999" style="fill: #262626; stroke: #262626; stroke-width: 0.8"/>
      </g>
     </g>
     <g id="text_24">
      <!-- 160 -->
      <g style="fill: #262626" transform="translate(267.095049 219.174796)scale(0.11 -0.11)">
       <use xlink:href="#ArialMT-31"/>
       <use xlink:href="#ArialMT-36" x="55.615234"/>
       <use xlink:href="#ArialMT-30" x="111.230469"/>
      </g>
     </g>
    </g>
    <g id="ytick_11">
     <g id="line2d_26">
      <g>
       <use xlink:href="#m644d098c17" x="294.946143" y="166.735905" style="fill: #262626; stroke: #262626; stroke-width: 0.8"/>
      </g>
     </g>
     <g id="text_25">
      <!-- 165 -->
      <g style="fill: #262626" transform="translate(267.095049 170.672702)scale(0.11 -0.11)">
       <use xlink:href="#ArialMT-31"/>
       <use xlink:href="#ArialMT-36" x="55.615234"/>
       <use xlink:href="#ArialMT-35" x="111.230469"/>
      </g>
     </g>
    </g>
    <g id="ytick_12">
     <g id="line2d_27">
      <g>
       <use xlink:href="#m644d098c17" x="294.946143" y="118.233811" style="fill: #262626; stroke: #262626; stroke-width: 0.8"/>
      </g>
     </g>
     <g id="text_26">
      <!-- 170 -->
      <g style="fill: #262626" transform="translate(267.095049 122.170608)scale(0.11 -0.11)">
       <use xlink:href="#ArialMT-31"/>
       <use xlink:href="#ArialMT-37" x="55.615234"/>
       <use xlink:href="#ArialMT-30" x="111.230469"/>
      </g>
     </g>
    </g>
    <g id="ytick_13">
     <g id="line2d_28">
      <g>
       <use xlink:href="#m644d098c17" x="294.946143" y="69.731717" style="fill: #262626; stroke: #262626; stroke-width: 0.8"/>
      </g>
     </g>
     <g id="text_27">
      <!-- 175 -->
      <g style="fill: #262626" transform="translate(267.095049 73.668514)scale(0.11 -0.11)">
       <use xlink:href="#ArialMT-31"/>
       <use xlink:href="#ArialMT-37" x="55.615234"/>
       <use xlink:href="#ArialMT-35" x="111.230469"/>
      </g>
     </g>
    </g>
    <g id="text_28">
     <!-- Heart Rate [bpm] -->
     <g style="fill: #262626" transform="translate(503.639785 193.017568)rotate(-90)scale(0.12 -0.12)">
      <defs>
       <path id="ArialMT-48" d="M 513 0 
L 513 4581 
L 1119 4581 
L 1119 2700 
L 3500 2700 
L 3500 4581 
L 4106 4581 
L 4106 0 
L 3500 0 
L 3500 2159 
L 1119 2159 
L 1119 0 
L 513 0 
z
" transform="scale(0.015625)"/>
       <path id="ArialMT-52" d="M 503 0 
L 503 4581 
L 2534 4581 
Q 3147 4581 3465 4457 
Q 3784 4334 3975 4021 
Q 4166 3709 4166 3331 
Q 4166 2844 3850 2509 
Q 3534 2175 2875 2084 
Q 3116 1969 3241 1856 
Q 3506 1613 3744 1247 
L 4541 0 
L 3778 0 
L 3172 953 
Q 2906 1366 2734 1584 
Q 2563 1803 2427 1890 
Q 2291 1978 2150 2013 
Q 2047 2034 1813 2034 
L 1109 2034 
L 1109 0 
L 503 0 
z
M 1109 2559 
L 2413 2559 
Q 2828 2559 3062 2645 
Q 3297 2731 3419 2920 
Q 3541 3109 3541 3331 
Q 3541 3656 3305 3865 
Q 3069 4075 2559 4075 
L 1109 4075 
L 1109 2559 
z
" transform="scale(0.015625)"/>
       <path id="ArialMT-62" d="M 941 0 
L 419 0 
L 419 4581 
L 981 4581 
L 981 2947 
Q 1338 3394 1891 3394 
Q 2197 3394 2470 3270 
Q 2744 3147 2920 2923 
Q 3097 2700 3197 2384 
Q 3297 2069 3297 1709 
Q 3297 856 2875 390 
Q 2453 -75 1863 -75 
Q 1275 -75 941 416 
L 941 0 
z
M 934 1684 
Q 934 1088 1097 822 
Q 1363 388 1816 388 
Q 2184 388 2453 708 
Q 2722 1028 2722 1663 
Q 2722 2313 2464 2622 
Q 2206 2931 1841 2931 
Q 1472 2931 1203 2611 
Q 934 2291 934 1684 
z
" transform="scale(0.015625)"/>
      </defs>
      <use xlink:href="#ArialMT-48"/>
      <use xlink:href="#ArialMT-65" x="72.216797"/>
      <use xlink:href="#ArialMT-61" x="127.832031"/>
      <use xlink:href="#ArialMT-72" x="183.447266"/>
      <use xlink:href="#ArialMT-74" x="216.748047"/>
      <use xlink:href="#ArialMT-20" x="244.53125"/>
      <use xlink:href="#ArialMT-52" x="272.314453"/>
      <use xlink:href="#ArialMT-61" x="344.53125"/>
      <use xlink:href="#ArialMT-74" x="400.146484"/>
      <use xlink:href="#ArialMT-65" x="427.929688"/>
      <use xlink:href="#ArialMT-20" x="483.544922"/>
      <use xlink:href="#ArialMT-5b" x="511.328125"/>
      <use xlink:href="#ArialMT-62" x="539.111328"/>
      <use xlink:href="#ArialMT-70" x="594.726562"/>
      <use xlink:href="#ArialMT-6d" x="650.341797"/>
      <use xlink:href="#ArialMT-5d" x="733.642578"/>
     </g>
    </g>
   </g>
   <g id="PathCollection_4">
    <g clip-path="url(#p6dbb87cde0)">
     <use xlink:href="#m78d4b36d7e" x="459.519398" y="40.630461" style="fill: #ff0000; stroke: #ff0000"/>
    </g>
   </g>
   <g id="PathCollection_5">
    <g clip-path="url(#p6dbb87cde0)">
     <use xlink:href="#m421b9423d9" x="466.171511" y="127.93423" style="fill: #234990; stroke: #234990"/>
    </g>
   </g>
   <g id="PathCollection_6">
    <g clip-path="url(#p6dbb87cde0)">
     <use xlink:href="#mc5e9d9e6b5" x="467.501933" y="89.132555" style="fill: #207720; stroke: #207720"/>
    </g>
   </g>
   <g id="line2d_29">
    <path d="M 303.859973 118.233811 
L 305.190395 118.233811 
L 306.520818 108.533392 
L 307.85124 118.233811 
L 309.181663 118.233811 
L 310.512085 108.533392 
L 311.842508 118.233811 
L 313.17293 147.335068 
L 314.503352 127.93423 
L 315.833775 127.93423 
L 317.164197 127.93423 
L 318.49462 137.634649 
L 319.825042 108.533392 
L 321.155465 127.93423 
L 322.485887 137.634649 
L 323.81631 137.634649 
L 325.146732 127.93423 
L 326.477154 108.533392 
L 327.807577 118.233811 
L 329.137999 108.533392 
L 330.468422 98.832974 
L 331.798844 108.533392 
L 333.129267 118.233811 
L 334.459689 98.832974 
L 335.790111 98.832974 
L 337.120534 108.533392 
L 338.450956 108.533392 
L 339.781379 98.832974 
L 341.111801 98.832974 
L 342.442224 89.132555 
L 343.772646 89.132555 
L 345.103069 89.132555 
L 346.433491 98.832974 
L 347.763913 98.832974 
L 349.094336 89.132555 
L 350.424758 98.832974 
L 351.755181 98.832974 
L 353.085603 79.432136 
L 354.416026 79.432136 
L 355.746448 89.132555 
L 357.076871 98.832974 
L 358.407293 89.132555 
L 359.737715 89.132555 
L 361.068138 69.731717 
L 362.39856 69.731717 
L 363.728983 89.132555 
L 365.059405 89.132555 
L 366.389828 79.432136 
L 367.72025 98.832974 
L 369.050672 108.533392 
L 370.381095 118.233811 
L 371.711517 89.132555 
L 373.04194 79.432136 
L 374.372362 79.432136 
L 375.702785 79.432136 
L 377.033207 79.432136 
L 378.36363 79.432136 
L 379.694052 69.731717 
L 381.024474 79.432136 
L 382.354897 79.432136 
L 383.685319 89.132555 
L 385.015742 79.432136 
L 386.346164 60.031298 
L 387.676587 69.731717 
L 389.007009 69.731717 
L 390.337432 69.731717 
L 391.667854 69.731717 
L 392.998276 60.031298 
L 394.328699 60.031298 
L 395.659121 60.031298 
L 396.989544 50.33088 
L 398.319966 60.031298 
L 399.650389 60.031298 
L 400.980811 69.731717 
L 402.311233 60.031298 
L 403.641656 69.731717 
L 404.972078 69.731717 
L 406.302501 69.731717 
L 407.632923 60.031298 
L 408.963346 79.432136 
L 410.293768 60.031298 
L 411.624191 69.731717 
L 412.954613 79.432136 
L 414.285035 69.731717 
L 415.615458 79.432136 
L 416.94588 69.731717 
L 418.276303 60.031298 
L 419.606725 50.33088 
L 420.937148 50.33088 
L 422.26757 50.33088 
L 423.597992 50.33088 
L 424.928415 60.031298 
L 426.258837 60.031298 
L 427.58926 60.031298 
L 428.919682 69.731717 
L 430.250105 79.432136 
L 431.580527 79.432136 
L 432.91095 79.432136 
L 434.241372 79.432136 
L 435.571794 79.432136 
L 436.902217 69.731717 
L 438.232639 60.031298 
L 439.563062 50.33088 
L 440.893484 50.33088 
L 442.223907 50.33088 
L 443.554329 60.031298 
L 444.884752 60.031298 
L 446.215174 50.33088 
L 447.545596 50.33088 
L 448.876019 50.33088 
L 450.206441 60.031298 
L 451.536864 60.031298 
L 452.867286 50.33088 
L 454.197709 40.630461 
L 455.528131 40.630461 
L 456.858553 40.630461 
L 458.188976 40.630461 
L 459.519398 40.630461 
L 460.849821 50.33088 
L 462.180243 50.33088 
L 463.510666 50.33088 
L 464.841088 50.33088 
L 466.171511 50.33088 
L 467.501933 50.33088 
L 468.832355 50.33088 
L 470.162778 50.33088 
" clip-path="url(#p6dbb87cde0)" style="fill: none; stroke: #ff0000; stroke-opacity: 0.8; stroke-linecap: round"/>
   </g>
   <g id="line2d_30">
    <path d="M 303.859973 195.837162 
L 305.190395 176.436324 
L 307.85124 157.035486 
L 309.181663 205.537581 
L 310.512085 244.339256 
L 311.842508 205.537581 
L 313.17293 157.035486 
L 315.833775 195.837162 
L 317.164197 176.436324 
L 318.49462 166.735905 
L 323.81631 166.735905 
L 325.146732 176.436324 
L 326.477154 176.436324 
L 327.807577 205.537581 
L 330.468422 186.136743 
L 331.798844 157.035486 
L 333.129267 186.136743 
L 334.459689 186.136743 
L 335.790111 205.537581 
L 337.120534 186.136743 
L 338.450956 186.136743 
L 339.781379 195.837162 
L 341.111801 176.436324 
L 342.442224 195.837162 
L 343.772646 186.136743 
L 345.103069 186.136743 
L 346.433491 176.436324 
L 347.763913 176.436324 
L 349.094336 166.735905 
L 351.755181 166.735905 
L 354.416026 147.335068 
L 355.746448 157.035486 
L 357.076871 157.035486 
L 358.407293 166.735905 
L 359.737715 147.335068 
L 361.068138 147.335068 
L 362.39856 166.735905 
L 365.059405 166.735905 
L 366.389828 157.035486 
L 369.050672 176.436324 
L 371.711517 234.638837 
L 373.04194 205.537581 
L 374.372362 195.837162 
L 375.702785 215.237999 
L 377.033207 195.837162 
L 378.36363 186.136743 
L 379.694052 186.136743 
L 381.024474 176.436324 
L 382.354897 186.136743 
L 383.685319 186.136743 
L 385.015742 166.735905 
L 386.346164 186.136743 
L 387.676587 166.735905 
L 389.007009 186.136743 
L 390.337432 195.837162 
L 392.998276 195.837162 
L 394.328699 186.136743 
L 395.659121 186.136743 
L 396.989544 176.436324 
L 398.319966 224.938418 
L 399.650389 186.136743 
L 400.980811 176.436324 
L 402.311233 176.436324 
L 403.641656 234.638837 
L 404.972078 166.735905 
L 406.302501 157.035486 
L 407.632923 157.035486 
L 408.963346 186.136743 
L 410.293768 195.837162 
L 411.624191 176.436324 
L 414.285035 157.035486 
L 415.615458 176.436324 
L 416.94588 176.436324 
L 418.276303 166.735905 
L 419.606725 147.335068 
L 420.937148 195.837162 
L 422.26757 186.136743 
L 423.597992 166.735905 
L 424.928415 195.837162 
L 426.258837 166.735905 
L 427.58926 186.136743 
L 428.919682 166.735905 
L 430.250105 186.136743 
L 431.580527 166.735905 
L 432.91095 176.436324 
L 434.241372 166.735905 
L 435.571794 166.735905 
L 436.902217 137.634649 
L 438.232639 157.035486 
L 440.893484 137.634649 
L 444.884752 166.735905 
L 446.215174 147.335068 
L 447.545596 176.436324 
L 451.536864 147.335068 
L 452.867286 166.735905 
L 454.197709 157.035486 
L 455.528131 137.634649 
L 456.858553 137.634649 
L 459.519398 157.035486 
L 460.849821 147.335068 
L 462.180243 147.335068 
L 463.510666 137.634649 
L 464.841088 147.335068 
L 466.171511 127.93423 
L 467.501933 157.035486 
L 468.832355 137.634649 
L 470.162778 137.634649 
L 471.4932 147.335068 
L 472.823623 137.634649 
L 475.484468 137.634649 
L 476.81489 176.436324 
L 478.145313 186.136743 
L 479.475735 137.634649 
L 482.13658 137.634649 
L 482.13658 137.634649 
" clip-path="url(#p6dbb87cde0)" style="fill: none; stroke: #234990; stroke-opacity: 0.8; stroke-linecap: round"/>
   </g>
   <g id="line2d_31">
    <path d="M 303.859973 137.634649 
L 305.190395 176.436324 
L 306.520818 205.537581 
L 307.85124 186.136743 
L 310.512085 205.537581 
L 311.842508 254.039675 
L 313.17293 244.339256 
L 314.503352 186.136743 
L 315.833775 157.035486 
L 317.164197 166.735905 
L 318.49462 157.035486 
L 319.825042 176.436324 
L 321.155465 157.035486 
L 322.485887 147.335068 
L 323.81631 157.035486 
L 325.146732 127.93423 
L 326.477154 137.634649 
L 327.807577 157.035486 
L 329.137999 166.735905 
L 330.468422 205.537581 
L 331.798844 166.735905 
L 333.129267 195.837162 
L 334.459689 195.837162 
L 337.120534 234.638837 
L 338.450956 224.938418 
L 341.111801 215.237999 
L 342.575266 205.537581 
L 343.905688 215.237999 
L 345.236111 254.039675 
L 346.433491 127.93423 
L 347.763913 118.233811 
L 350.424758 157.035486 
L 353.085603 157.035486 
L 354.416026 215.237999 
L 355.746448 157.035486 
L 358.407293 176.436324 
L 359.737715 157.035486 
L 361.068138 166.735905 
L 362.39856 157.035486 
L 363.728983 176.436324 
L 365.059405 147.335068 
L 366.389828 157.035486 
L 369.050672 137.634649 
L 370.381095 166.735905 
L 371.711517 157.035486 
L 373.04194 137.634649 
L 374.372362 127.93423 
L 375.702785 127.93423 
L 377.033207 118.233811 
L 378.36363 137.634649 
L 379.694052 176.436324 
L 381.024474 137.634649 
L 382.354897 127.93423 
L 383.685319 147.335068 
L 385.015742 137.634649 
L 386.346164 137.634649 
L 387.676587 127.93423 
L 392.998276 127.93423 
L 394.461741 118.233811 
L 396.989544 118.233811 
L 398.319966 127.93423 
L 399.650389 127.93423 
L 400.980811 147.335068 
L 403.641656 127.93423 
L 404.972078 147.335068 
L 406.302501 127.93423 
L 407.632923 127.93423 
L 408.963346 157.035486 
L 410.293768 147.335068 
L 411.624191 118.233811 
L 412.954613 127.93423 
L 414.285035 118.233811 
L 418.276303 118.233811 
L 419.606725 127.93423 
L 420.937148 118.233811 
L 426.258837 118.233811 
L 427.58926 108.533392 
L 428.919682 118.233811 
L 432.91095 118.233811 
L 434.241372 127.93423 
L 435.571794 118.233811 
L 440.893484 118.233811 
L 442.223907 127.93423 
L 446.215174 127.93423 
L 447.545596 118.233811 
L 448.876019 118.233811 
L 450.206441 108.533392 
L 452.867286 127.93423 
L 454.197709 108.533392 
L 455.528131 98.832974 
L 458.188976 118.233811 
L 460.849821 118.233811 
L 462.180243 127.93423 
L 463.510666 118.233811 
L 464.841088 118.233811 
L 466.171511 98.832974 
L 467.501933 89.132555 
L 468.832355 98.832974 
L 470.162778 118.233811 
L 471.4932 98.832974 
L 472.823623 118.233811 
L 474.154045 108.533392 
L 475.484468 108.533392 
L 476.81489 98.832974 
L 476.81489 98.832974 
" clip-path="url(#p6dbb87cde0)" style="fill: none; stroke: #207720; stroke-opacity: 0.8; stroke-linecap: round"/>
   </g>
   <g id="patch_8">
    <path d="M 294.946143 264.710135 
L 294.946143 29.96 
" style="fill: none; stroke: #262626; stroke-width: 1.25; stroke-linejoin: miter; stroke-linecap: square"/>
   </g>
   <g id="patch_9">
    <path d="M 491.05041 264.710135 
L 491.05041 29.96 
" style="fill: none; stroke: #262626; stroke-width: 1.25; stroke-linejoin: miter; stroke-linecap: square"/>
   </g>
   <g id="patch_10">
    <path d="M 294.946143 264.710135 
L 491.05041 264.710135 
" style="fill: none; stroke: #262626; stroke-width: 1.25; stroke-linejoin: miter; stroke-linecap: square"/>
   </g>
   <g id="patch_11">
    <path d="M 294.946143 29.96 
L 491.05041 29.96 
" style="fill: none; stroke: #262626; stroke-width: 1.25; stroke-linejoin: miter; stroke-linecap: square"/>
   </g>
   <g id="text_29">
    <!-- Heart Rate -->
    <g style="fill: #262626" transform="translate(357.986245 23.96)scale(0.14 -0.14)">
     <defs>
      <path id="Arial-BoldMT-48" d="M 469 0 
L 469 4581 
L 1394 4581 
L 1394 2778 
L 3206 2778 
L 3206 4581 
L 4131 4581 
L 4131 0 
L 3206 0 
L 3206 2003 
L 1394 2003 
L 1394 0 
L 469 0 
z
" transform="scale(0.015625)"/>
      <path id="Arial-BoldMT-52" d="M 469 0 
L 469 4581 
L 2416 4581 
Q 3150 4581 3483 4457 
Q 3816 4334 4016 4018 
Q 4216 3703 4216 3297 
Q 4216 2781 3912 2445 
Q 3609 2109 3006 2022 
Q 3306 1847 3501 1637 
Q 3697 1428 4028 894 
L 4588 0 
L 3481 0 
L 2813 997 
Q 2456 1531 2325 1670 
Q 2194 1809 2047 1861 
Q 1900 1913 1581 1913 
L 1394 1913 
L 1394 0 
L 469 0 
z
M 1394 2644 
L 2078 2644 
Q 2744 2644 2909 2700 
Q 3075 2756 3169 2893 
Q 3263 3031 3263 3238 
Q 3263 3469 3139 3611 
Q 3016 3753 2791 3791 
Q 2678 3806 2116 3806 
L 1394 3806 
L 1394 2644 
z
" transform="scale(0.015625)"/>
     </defs>
     <use xlink:href="#Arial-BoldMT-48"/>
     <use xlink:href="#Arial-BoldMT-65" x="72.216797"/>
     <use xlink:href="#Arial-BoldMT-61" x="127.832031"/>
     <use xlink:href="#Arial-BoldMT-72" x="183.447266"/>
     <use xlink:href="#Arial-BoldMT-74" x="222.363281"/>
     <use xlink:href="#Arial-BoldMT-20" x="255.664062"/>
     <use xlink:href="#Arial-BoldMT-52" x="283.447266"/>
     <use xlink:href="#Arial-BoldMT-61" x="355.664062"/>
     <use xlink:href="#Arial-BoldMT-74" x="411.279297"/>
     <use xlink:href="#Arial-BoldMT-65" x="444.580078"/>
    </g>
   </g>
   <g id="legend_1">
    <g id="patch_12">
     <path d="M 11 311.17701 
L 168.076563 311.17701 
Q 170.076563 311.17701 170.076563 309.17701 
L 170.076563 298.031698 
Q 170.076563 296.031698 168.076563 296.031698 
L 11 296.031698 
Q 9 296.031698 9 298.031698 
L 9 309.17701 
Q 9 311.17701 11 311.17701 
z
" style="fill: #ffffff; opacity: 0.8; stroke: #cccccc; stroke-linejoin: miter"/>
    </g>
    <g id="line2d_32">
     <path d="M 12 302.68951 
L 18 302.68951 
L 24 302.68951 
" style="fill: none; stroke: #ff0000; stroke-opacity: 0.8; stroke-linecap: round"/>
    </g>
    <g id="text_30">
     <!-- Water -->
     <g style="fill: #262626" transform="translate(29 306.18951)scale(0.1 -0.1)">
      <defs>
       <path id="ArialMT-57" d="M 1294 0 
L 78 4581 
L 700 4581 
L 1397 1578 
Q 1509 1106 1591 641 
Q 1766 1375 1797 1488 
L 2669 4581 
L 3400 4581 
L 4056 2263 
Q 4303 1400 4413 641 
Q 4500 1075 4641 1638 
L 5359 4581 
L 5969 4581 
L 4713 0 
L 4128 0 
L 3163 3491 
Q 3041 3928 3019 4028 
Q 2947 3713 2884 3491 
L 1913 0 
L 1294 0 
z
" transform="scale(0.015625)"/>
      </defs>
      <use xlink:href="#ArialMT-57"/>
      <use xlink:href="#ArialMT-61" x="90.634766"/>
      <use xlink:href="#ArialMT-74" x="146.25"/>
      <use xlink:href="#ArialMT-65" x="174.033203"/>
      <use xlink:href="#ArialMT-72" x="229.648438"/>
     </g>
    </g>
    <g id="line2d_33">
     <path d="M 75.29375 302.68951 
L 81.29375 302.68951 
L 87.29375 302.68951 
" style="fill: none; stroke: #234990; stroke-opacity: 0.8; stroke-linecap: round"/>
    </g>
    <g id="text_31">
     <!-- Gel -->
     <g style="fill: #262626" transform="translate(92.29375 306.18951)scale(0.1 -0.1)">
      <defs>
       <path id="ArialMT-47" d="M 2638 1797 
L 2638 2334 
L 4578 2338 
L 4578 638 
Q 4131 281 3656 101 
Q 3181 -78 2681 -78 
Q 2006 -78 1454 211 
Q 903 500 622 1047 
Q 341 1594 341 2269 
Q 341 2938 620 3517 
Q 900 4097 1425 4378 
Q 1950 4659 2634 4659 
Q 3131 4659 3532 4498 
Q 3934 4338 4162 4050 
Q 4391 3763 4509 3300 
L 3963 3150 
Q 3859 3500 3706 3700 
Q 3553 3900 3268 4020 
Q 2984 4141 2638 4141 
Q 2222 4141 1919 4014 
Q 1616 3888 1430 3681 
Q 1244 3475 1141 3228 
Q 966 2803 966 2306 
Q 966 1694 1177 1281 
Q 1388 869 1791 669 
Q 2194 469 2647 469 
Q 3041 469 3416 620 
Q 3791 772 3984 944 
L 3984 1797 
L 2638 1797 
z
" transform="scale(0.015625)"/>
       <path id="ArialMT-6c" d="M 409 0 
L 409 4581 
L 972 4581 
L 972 0 
L 409 0 
z
" transform="scale(0.015625)"/>
      </defs>
      <use xlink:href="#ArialMT-47"/>
      <use xlink:href="#ArialMT-65" x="77.783203"/>
      <use xlink:href="#ArialMT-6c" x="133.398438"/>
     </g>
    </g>
    <g id="line2d_34">
     <path d="M 127.854688 302.68951 
L 133.854688 302.68951 
L 139.854688 302.68951 
" style="fill: none; stroke: #207720; stroke-opacity: 0.8; stroke-linecap: round"/>
    </g>
    <g id="text_32">
     <!-- PCM -->
     <g style="fill: #262626" transform="translate(144.854688 306.18951)scale(0.1 -0.1)">
      <defs>
       <path id="ArialMT-50" d="M 494 0 
L 494 4581 
L 2222 4581 
Q 2678 4581 2919 4538 
Q 3256 4481 3484 4323 
Q 3713 4166 3852 3881 
Q 3991 3597 3991 3256 
Q 3991 2672 3619 2267 
Q 3247 1863 2275 1863 
L 1100 1863 
L 1100 0 
L 494 0 
z
M 1100 2403 
L 2284 2403 
Q 2872 2403 3119 2622 
Q 3366 2841 3366 3238 
Q 3366 3525 3220 3729 
Q 3075 3934 2838 4000 
Q 2684 4041 2272 4041 
L 1100 4041 
L 1100 2403 
z
" transform="scale(0.015625)"/>
       <path id="ArialMT-4d" d="M 475 0 
L 475 4581 
L 1388 4581 
L 2472 1338 
Q 2622 884 2691 659 
Q 2769 909 2934 1394 
L 4031 4581 
L 4847 4581 
L 4847 0 
L 4263 0 
L 4263 3834 
L 2931 0 
L 2384 0 
L 1059 3900 
L 1059 0 
L 475 0 
z
" transform="scale(0.015625)"/>
      </defs>
      <use xlink:href="#ArialMT-50"/>
      <use xlink:href="#ArialMT-43" x="66.699219"/>
      <use xlink:href="#ArialMT-4d" x="138.916016"/>
     </g>
    </g>
   </g>
  </g>
  <g id="text_33">
   <!-- Duration [seconds] -->
   <g style="fill: #262626" transform="translate(209.00458 301.78316)scale(0.12 -0.12)">
    <defs>
     <path id="ArialMT-44" d="M 494 0 
L 494 4581 
L 2072 4581 
Q 2606 4581 2888 4516 
Q 3281 4425 3559 4188 
Q 3922 3881 4101 3404 
Q 4281 2928 4281 2316 
Q 4281 1794 4159 1391 
Q 4038 988 3847 723 
Q 3656 459 3429 307 
Q 3203 156 2883 78 
Q 2563 0 2147 0 
L 494 0 
z
M 1100 541 
L 2078 541 
Q 2531 541 2789 625 
Q 3047 709 3200 863 
Q 3416 1078 3536 1442 
Q 3656 1806 3656 2325 
Q 3656 3044 3420 3430 
Q 3184 3816 2847 3947 
Q 2603 4041 2063 4041 
L 1100 4041 
L 1100 541 
z
" transform="scale(0.015625)"/>
     <path id="ArialMT-69" d="M 425 3934 
L 425 4581 
L 988 4581 
L 988 3934 
L 425 3934 
z
M 425 0 
L 425 3319 
L 988 3319 
L 988 0 
L 425 0 
z
" transform="scale(0.015625)"/>
     <path id="ArialMT-6f" d="M 213 1659 
Q 213 2581 725 3025 
Q 1153 3394 1769 3394 
Q 2453 3394 2887 2945 
Q 3322 2497 3322 1706 
Q 3322 1066 3130 698 
Q 2938 331 2570 128 
Q 2203 -75 1769 -75 
Q 1072 -75 642 372 
Q 213 819 213 1659 
z
M 791 1659 
Q 791 1022 1069 705 
Q 1347 388 1769 388 
Q 2188 388 2466 706 
Q 2744 1025 2744 1678 
Q 2744 2294 2464 2611 
Q 2184 2928 1769 2928 
Q 1347 2928 1069 2612 
Q 791 2297 791 1659 
z
" transform="scale(0.015625)"/>
     <path id="ArialMT-6e" d="M 422 0 
L 422 3319 
L 928 3319 
L 928 2847 
Q 1294 3394 1984 3394 
Q 2284 3394 2536 3286 
Q 2788 3178 2913 3003 
Q 3038 2828 3088 2588 
Q 3119 2431 3119 2041 
L 3119 0 
L 2556 0 
L 2556 2019 
Q 2556 2363 2490 2533 
Q 2425 2703 2258 2804 
Q 2091 2906 1866 2906 
Q 1506 2906 1245 2678 
Q 984 2450 984 1813 
L 984 0 
L 422 0 
z
" transform="scale(0.015625)"/>
     <path id="ArialMT-73" d="M 197 991 
L 753 1078 
Q 800 744 1014 566 
Q 1228 388 1613 388 
Q 2000 388 2187 545 
Q 2375 703 2375 916 
Q 2375 1106 2209 1216 
Q 2094 1291 1634 1406 
Q 1016 1563 777 1677 
Q 538 1791 414 1992 
Q 291 2194 291 2438 
Q 291 2659 392 2848 
Q 494 3038 669 3163 
Q 800 3259 1026 3326 
Q 1253 3394 1513 3394 
Q 1903 3394 2198 3281 
Q 2494 3169 2634 2976 
Q 2775 2784 2828 2463 
L 2278 2388 
Q 2241 2644 2061 2787 
Q 1881 2931 1553 2931 
Q 1166 2931 1000 2803 
Q 834 2675 834 2503 
Q 834 2394 903 2306 
Q 972 2216 1119 2156 
Q 1203 2125 1616 2013 
Q 2213 1853 2448 1751 
Q 2684 1650 2818 1456 
Q 2953 1263 2953 975 
Q 2953 694 2789 445 
Q 2625 197 2315 61 
Q 2006 -75 1616 -75 
Q 969 -75 630 194 
Q 291 463 197 991 
z
" transform="scale(0.015625)"/>
     <path id="ArialMT-63" d="M 2588 1216 
L 3141 1144 
Q 3050 572 2676 248 
Q 2303 -75 1759 -75 
Q 1078 -75 664 370 
Q 250 816 250 1647 
Q 250 2184 428 2587 
Q 606 2991 970 3192 
Q 1334 3394 1763 3394 
Q 2303 3394 2647 3120 
Q 2991 2847 3088 2344 
L 2541 2259 
Q 2463 2594 2264 2762 
Q 2066 2931 1784 2931 
Q 1359 2931 1093 2626 
Q 828 2322 828 1663 
Q 828 994 1084 691 
Q 1341 388 1753 388 
Q 2084 388 2306 591 
Q 2528 794 2588 1216 
z
" transform="scale(0.015625)"/>
     <path id="ArialMT-64" d="M 2575 0 
L 2575 419 
Q 2259 -75 1647 -75 
Q 1250 -75 917 144 
Q 584 363 401 755 
Q 219 1147 219 1656 
Q 219 2153 384 2558 
Q 550 2963 881 3178 
Q 1213 3394 1622 3394 
Q 1922 3394 2156 3267 
Q 2391 3141 2538 2938 
L 2538 4581 
L 3097 4581 
L 3097 0 
L 2575 0 
z
M 797 1656 
Q 797 1019 1065 703 
Q 1334 388 1700 388 
Q 2069 388 2326 689 
Q 2584 991 2584 1609 
Q 2584 2291 2321 2609 
Q 2059 2928 1675 2928 
Q 1300 2928 1048 2622 
Q 797 2316 797 1656 
z
" transform="scale(0.015625)"/>
    </defs>
    <use xlink:href="#ArialMT-44"/>
    <use xlink:href="#ArialMT-75" x="72.216797"/>
    <use xlink:href="#ArialMT-72" x="127.832031"/>
    <use xlink:href="#ArialMT-61" x="161.132812"/>
    <use xlink:href="#ArialMT-74" x="216.748047"/>
    <use xlink:href="#ArialMT-69" x="244.53125"/>
    <use xlink:href="#ArialMT-6f" x="266.748047"/>
    <use xlink:href="#ArialMT-6e" x="322.363281"/>
    <use xlink:href="#ArialMT-20" x="377.978516"/>
    <use xlink:href="#ArialMT-5b" x="405.761719"/>
    <use xlink:href="#ArialMT-73" x="433.544922"/>
    <use xlink:href="#ArialMT-65" x="483.544922"/>
    <use xlink:href="#ArialMT-63" x="539.160156"/>
    <use xlink:href="#ArialMT-6f" x="589.160156"/>
    <use xlink:href="#ArialMT-6e" x="644.775391"/>
    <use xlink:href="#ArialMT-64" x="700.390625"/>
    <use xlink:href="#ArialMT-73" x="756.005859"/>
    <use xlink:href="#ArialMT-5d" x="806.005859"/>
   </g>
  </g>
  <g id="legend_2">
   <g id="patch_13">
    <path d="M 11 311.17701 
L 168.076563 311.17701 
Q 170.076563 311.17701 170.076563 309.17701 
L 170.076563 298.031698 
Q 170.076563 296.031698 168.076563 296.031698 
L 11 296.031698 
Q 9 296.031698 9 298.031698 
L 9 309.17701 
Q 9 311.17701 11 311.17701 
z
" style="fill: #ffffff; opacity: 0.8; stroke: #cccccc; stroke-linejoin: miter"/>
   </g>
   <g id="line2d_35">
    <path d="M 12 302.68951 
L 18 302.68951 
L 24 302.68951 
" style="fill: none; stroke: #ff0000; stroke-opacity: 0.8; stroke-linecap: round"/>
   </g>
   <g id="text_34">
    <!-- Water -->
    <g style="fill: #262626" transform="translate(29 306.18951)scale(0.1 -0.1)">
     <use xlink:href="#ArialMT-57"/>
     <use xlink:href="#ArialMT-61" x="90.634766"/>
     <use xlink:href="#ArialMT-74" x="146.25"/>
     <use xlink:href="#ArialMT-65" x="174.033203"/>
     <use xlink:href="#ArialMT-72" x="229.648438"/>
    </g>
   </g>
   <g id="line2d_36">
    <path d="M 75.29375 302.68951 
L 81.29375 302.68951 
L 87.29375 302.68951 
" style="fill: none; stroke: #234990; stroke-opacity: 0.8; stroke-linecap: round"/>
   </g>
   <g id="text_35">
    <!-- Gel -->
    <g style="fill: #262626" transform="translate(92.29375 306.18951)scale(0.1 -0.1)">
     <use xlink:href="#ArialMT-47"/>
     <use xlink:href="#ArialMT-65" x="77.783203"/>
     <use xlink:href="#ArialMT-6c" x="133.398438"/>
    </g>
   </g>
   <g id="line2d_37">
    <path d="M 127.854688 302.68951 
L 133.854688 302.68951 
L 139.854688 302.68951 
" style="fill: none; stroke: #207720; stroke-opacity: 0.8; stroke-linecap: round"/>
   </g>
   <g id="text_36">
    <!-- PCM -->
    <g style="fill: #262626" transform="translate(144.854688 306.18951)scale(0.1 -0.1)">
     <use xlink:href="#ArialMT-50"/>
     <use xlink:href="#ArialMT-43" x="66.699219"/>
     <use xlink:href="#ArialMT-4d" x="138.916016"/>
    </g>
   </g>
  </g>
  <g id="legend_3">
   <g id="patch_14">
    <path d="M 454.265098 311.17701 
L 507.057285 311.17701 
Q 509.057285 311.17701 509.057285 309.17701 
L 509.057285 298.031698 
Q 509.057285 296.031698 507.057285 296.031698 
L 454.265098 296.031698 
Q 452.265098 296.031698 452.265098 298.031698 
L 452.265098 309.17701 
Q 452.265098 311.17701 454.265098 311.17701 
z
" style="fill: #ffffff; opacity: 0.8; stroke: #cccccc; stroke-linejoin: miter"/>
   </g>
   <g id="PathCollection_7">
    <g>
     <use xlink:href="#m78d4b36d7e" x="457.598431" y="303.56451" style="fill: #ff0000; stroke: #ff0000"/>
    </g>
   </g>
   <g id="PathCollection_8">
    <g>
     <use xlink:href="#m421b9423d9" x="465.265098" y="303.56451" style="fill: #234990; stroke: #234990"/>
    </g>
   </g>
   <g id="PathCollection_9">
    <g>
     <use xlink:href="#mc5e9d9e6b5" x="472.931764" y="303.56451" style="fill: #207720; stroke: #207720"/>
    </g>
   </g>
   <g id="text_37">
    <!-- Peak -->
    <g style="fill: #262626" transform="translate(483.265098 306.18951)scale(0.1 -0.1)">
     <defs>
      <path id="ArialMT-6b" d="M 425 0 
L 425 4581 
L 988 4581 
L 988 1969 
L 2319 3319 
L 3047 3319 
L 1778 2088 
L 3175 0 
L 2481 0 
L 1384 1697 
L 988 1316 
L 988 0 
L 425 0 
z
" transform="scale(0.015625)"/>
     </defs>
     <use xlink:href="#ArialMT-50"/>
     <use xlink:href="#ArialMT-65" x="66.699219"/>
     <use xlink:href="#ArialMT-61" x="122.314453"/>
     <use xlink:href="#ArialMT-6b" x="177.929688"/>
    </g>
   </g>
  </g>
 </g>
 <defs>
  <clipPath id="p73bf27b5e7">
   <rect x="58.006875" y="29.96" width="196.104268" height="234.750135"/>
  </clipPath>
  <clipPath id="p6dbb87cde0">
   <rect x="294.946143" y="29.96" width="196.104268" height="234.750135"/>
  </clipPath>
 </defs>
</svg>
